<svg xmlns="http://www.w3.org/2000/svg" width="32" height="27.635" viewBox="0 0 32 27.635"><path fill="#E21D3A" d="M18.958 21.142h-2.257v-8.979h2.257v8.979zm-1.129-12.637c-.799 0-1.448.648-1.448 1.448 0 .801.648 1.449 1.448 1.449.802 0 1.45-.648 1.45-1.449 0-.8-.648-1.448-1.45-1.448zm-2.672 3.658h-2.257v8.979h2.257v-8.979zm-1.13-3.658c-.799 0-1.447.648-1.447 1.448 0 .801.648 1.449 1.447 1.449.802 0 1.45-.648 1.45-1.449.001-.8-.648-1.448-1.45-1.448zm-2.081-.69h-2.59l-3.383 9.549-3.382-9.549h-2.591l4.748 13.398h2.452l4.746-13.398zm12.855 13.398h2.453l4.746-13.398h-2.59l-3.383 9.549-3.383-9.549h-2.59l4.747 13.398zm-17.91-11.681c.082-4.854 4.037-8.766 8.91-8.766s8.828 3.912 8.91 8.766h1.492c-.135-5.285-4.453-9.532-9.77-9.532-5.316 0-9.636 4.247-9.769 9.532h.227zm24.49 17.78h-30.787v.323h30.787v-.323zm-30.001-1.05h-.752v-3.847h.752v1.558h1.239v-1.558h.752v3.847h-.752v-1.563h-1.239v1.563zm8.806-.358c-.163.293-.455.422-.904.422-.865 0-1.51-.665-1.51-1.531 0-.406.146-.785.417-1.065.291-.308.638-.45 1.077-.45.421 0 .725.142.915.428v-.351h.66v2.906h-.655v-.359zm-.882-.259c.423 0 .807-.378.807-.828 0-.487-.39-.866-.817-.866-.449 0-.827.362-.827.833-.001.504.383.861.837.861zm2.427-3.23h.66v3.847h-.66v-3.847zm1.961 1.637h-.444v-.6h.444v-1.038h.676v1.038h.45v.6h-.45v2.209h-.676v-2.209zm2.725-.366c.2-.264.448-.389.779-.389.719 0 1.124.454 1.124 1.297v1.667h-.675v-1.283c0-.688-.097-1.022-.6-1.022-.494 0-.634.357-.634 1.06v1.245h-.655v-3.847h.661v1.272zm8.383 2.218c-.163.293-.454.422-.903.422-.866 0-1.51-.665-1.51-1.531 0-.406.146-.785.417-1.065.291-.308.638-.45 1.076-.45.422 0 .725.142.915.428v-.351h.66v2.906h-.655v-.359zm-.882-.259c.422 0 .806-.378.806-.828 0-.487-.39-.866-.817-.866-.448 0-.827.362-.827.833 0 .504.384.861.838.861zm3.254-.865v1.482h-.676v-2.906h.633v.335c.2-.255.433-.378.747-.378v.632c-.58.043-.704.293-.704.835zm-20.915.676c-.147.144-.334.243-.566.243-.461 0-.764-.26-.807-.677h2.327l.006-.146c0-.385-.082-.693-.276-.952-.303-.417-.757-.655-1.26-.655-.401 0-.786.172-1.083.486-.27.287-.411.649-.411 1.055 0 .39.157.784.432 1.071.293.303.661.455 1.088.455.498 0 .915-.221 1.194-.615l-.644-.265zm-.576-1.564c.411 0 .692.205.806.595h-1.58c.102-.362.416-.595.774-.595zm24.731 1.564c-.146.145-.333.243-.565.243-.46 0-.763-.26-.807-.677h2.328l.006-.146c0-.385-.082-.693-.276-.952-.303-.417-.757-.655-1.26-.655-.401 0-.786.172-1.083.486-.271.287-.411.649-.411 1.055 0 .39.157.784.432 1.071.292.303.661.455 1.088.455.498 0 .914-.221 1.194-.615l-.646-.265zm-.575-1.564c.41 0 .692.205.806.595h-1.581c.103-.362.417-.595.775-.595zm-8.543 1.303h-.077c-.119.315-.363.471-.731.471-.477 0-.828-.368-.828-.859 0-.509.352-.872.808-.872.346 0 .594.152.757.455l.591-.304c-.244-.503-.723-.815-1.311-.815-.438 0-.823.166-1.125.486-.276.287-.417.649-.417 1.055 0 .384.157.784.438 1.071.293.297.661.455 1.094.455.625 0 1.096-.328 1.333-.867l-.532-.276z"/></svg>